<?xml version="1.0" standalone="no"?><!DOCTYPE svg PUBLIC "-//W3C//DTD SVG 1.1//EN" "http://www.w3.org/Graphics/SVG/1.1/DTD/svg11.dtd"><svg t="1601473429418" class="icon" viewBox="0 0 1024 1024" version="1.1" xmlns="http://www.w3.org/2000/svg" p-id="18307" xmlns:xlink="http://www.w3.org/1999/xlink" width="128" height="128"><defs><style type="text/css"></style></defs><path d="M796.2 466.4c0-2.4 0.4-4.8 0.4-7.2 0-130-103.6-235.2-231.4-235.2-92.2 0-171.4 54.8-208.6 134-16.2-8.2-34.4-13-53.6-13-59 0-108.2 43.8-117.6 101C114.6 470.4 64 538.2 64 618c0 100.4 80.2 181.8 179 182l553.4 0 0 0c90.4-0.4 163.4-75 163.4-166.8C960 541.2 886.6 466.6 796.2 466.4z" p-id="18308"></path></svg>