<?xml version="1.0" standalone="no"?><!DOCTYPE svg PUBLIC "-//W3C//DTD SVG 1.1//EN" "http://www.w3.org/Graphics/SVG/1.1/DTD/svg11.dtd"><svg t="1601473056717" class="icon" viewBox="0 0 1024 1024" version="1.1" xmlns="http://www.w3.org/2000/svg" p-id="12760" xmlns:xlink="http://www.w3.org/1999/xlink" width="128" height="128"><defs><style type="text/css"></style></defs><path d="M511.1 192.2c-176.2 0-319 142.9-319 319.1 0 176.3 142.8 319.1 319 319.1s319-142.9 319-319.1c0.1-176.2-142.8-319.1-319-319.1z m169.1 450.7l-37.8 37.5c-10.3 10.3-27.2 10.3-37.8 0L530 606c-5.6-5.6-13.6-7.2-21.4-5-46.4 13.6-98.3 2.2-134.9-34.4-32.5-32.5-45-77.8-37.2-120 2.2-11.9 17.5-16.4 26.1-7.8l73 72.8c10.3 10.3 27.2 10.3 37.8 0l37.5-37.5c10.5-10.6 10.5-27.2 0-37.5l-73.6-73.3c-8.6-8.6-4.4-23.9 7.5-26.1 43-8.3 89.1 4.2 122.4 37.5 36.9 36.4 48.3 88.9 34.1 135.5-2.2 7.5-0.8 15.8 4.7 21.4l74.1 73.9c10.4 10.2 10.4 27.1 0.1 37.4z m0 0" fill="#8a8a8a" p-id="12761"></path></svg>