<?xml version="1.0" standalone="no"?><!DOCTYPE svg PUBLIC "-//W3C//DTD SVG 1.1//EN" "http://www.w3.org/Graphics/SVG/1.1/DTD/svg11.dtd"><svg t="1601466941922" class="icon" viewBox="0 0 1038 1024" version="1.1" xmlns="http://www.w3.org/2000/svg" p-id="7617" xmlns:xlink="http://www.w3.org/1999/xlink" width="129.75" height="128"><defs><style type="text/css"></style></defs><path d="M485.007407 1020.801829c26.50605 0 48.021015-21.27268 48.021015-48.554044L533.028423 51.756157c0-26.84525-21.854165-48.602501-48.021015-48.602501L338.763791 3.153656C312.257741 3.202114 290.742776 24.474793 290.742776 51.756157l0 920.443172c0 26.84525 21.854165 48.554044 48.021015 48.554044L485.007407 1020.753372zM339.102991 51.853071C339.102991 51.465414 484.571293 51.756157 484.571293 51.756157c-0.436114 0-0.3392 920.491629-0.3392 920.491629 0 0.387657-145.468302 0.096914-145.468302 0.096914C339.151448 972.3447 339.102991 51.853071 339.102991 51.853071z" p-id="7618"></path><path d="M860.598617 1022.400915l141.300989-37.845018c25.633821-6.880912 40.84936-32.999305 33.823076-59.359983L797.458977 36.104504c-6.929369-25.924564-33.677705-41.285474-58.972326-34.501476l-141.300989 37.845018c-25.633821 6.880912-40.84936 32.999305-33.823076 59.359983l238.215248 889.091409C808.604117 1013.824003 835.303995 1029.136456 860.598617 1022.400915zM750.64939 48.606444c-0.387657 0.096914 237.924505 889.188323 237.924505 889.188323 0.096914 0.387657-140.477218 37.748104-140.477218 37.748104 0.387657-0.096914-237.924505-889.188323-237.924505-889.188323C610.026801 86.015348 750.64939 48.606444 750.64939 48.606444z" p-id="7619"></path><path d="M194.264631 1020.801829C220.770681 1020.801829 242.285647 999.480693 242.285647 972.199329L242.285647 51.756157c0-26.84525-21.854165-48.602501-48.021015-48.602501L48.021015 3.153656C21.514965 3.202114 0 24.474793 0 51.756157l0 920.443172c0 26.84525 21.854165 48.554044 48.021015 48.554044L194.264631 1020.753372zM48.360215 51.853071C48.360215 51.465414 193.828517 51.756157 193.828517 51.756157c-0.436114 0-0.3392 920.491629-0.3392 920.491629 0 0.387657-145.468302 0.096914-145.468302 0.096914C48.408672 972.3447 48.360215 51.853071 48.360215 51.853071z" p-id="7620"></path></svg>