<?xml version="1.0" standalone="no"?><!DOCTYPE svg PUBLIC "-//W3C//DTD SVG 1.1//EN" "http://www.w3.org/Graphics/SVG/1.1/DTD/svg11.dtd"><svg t="1601463434407" class="icon" viewBox="0 0 1024 1024" version="1.1" xmlns="http://www.w3.org/2000/svg" p-id="5969" xmlns:xlink="http://www.w3.org/1999/xlink" width="128" height="128"><defs><style type="text/css"></style></defs><path d="M960 887.466667h-213.333333c-25.6 0-42.666667-17.066667-42.666667-42.666667v-213.333333c0-25.6 17.066667-42.666667 42.666667-42.666667h85.333333v-85.333333h-298.666667v85.333333h85.333334c25.6 0 42.666667 17.066667 42.666666 42.666667v213.333333c0 25.6-17.066667 42.666667-42.666666 42.666667h-213.333334c-25.6 0-42.666667-17.066667-42.666666-42.666667v-213.333333c0-25.6 17.066667-42.666667 42.666666-42.666667h85.333334v-85.333333h-298.666667v85.333333h85.333333c25.6 0 42.666667 17.066667 42.666667 42.666667v213.333333c0 25.6-17.066667 42.666667-42.666667 42.666667h-213.333333c-25.6 0-42.666667-17.066667-42.666667-42.666667v-213.333333c0-25.6 17.066667-42.666667 42.666667-42.666667h85.333333v-128h341.333334v-85.333333h-85.333334c-25.6 0-42.666667-17.066667-42.666666-42.666667v-213.333333c0-25.6 17.066667-42.666667 42.666666-42.666667h213.333334c25.6 0 42.666667 17.066667 42.666666 42.666667v213.333333c0 25.6-17.066667 42.666667-42.666666 42.666667h-85.333334v85.333333h341.333334v128h85.333333c25.6 0 42.666667 17.066667 42.666667 42.666667v213.333333c0 21.333333-17.066667 42.666667-42.666667 42.666667z" p-id="5970" fill="#bfbfbf"></path></svg>