<?xml version="1.0" standalone="no"?><!DOCTYPE svg PUBLIC "-//W3C//DTD SVG 1.1//EN" "http://www.w3.org/Graphics/SVG/1.1/DTD/svg11.dtd"><svg t="1601473703618" class="icon" viewBox="0 0 1075 1024" version="1.1" xmlns="http://www.w3.org/2000/svg" p-id="22773" xmlns:xlink="http://www.w3.org/1999/xlink" width="134.375" height="128"><defs><style type="text/css"></style></defs><path d="M485.384192 556.032L27.656192 321.024a42.496 42.496 0 0 1 0-78.848L480.264192 7.168c18.432-9.728 40.448-9.728 58.88 0l460.8 235.008a42.496 42.496 0 0 1 0 78.848l-453.632 235.008c-18.9952 10.24-41.9328 10.24-60.928 0z m512-83.968a43.008 43.008 0 0 1 0 79.36l-453.632 235.008a67.072 67.072 0 0 1-59.392 0L26.632192 551.424a43.008 43.008 0 0 1 0-79.36l35.328-17.92 423.424 217.088c18.7392 9.216 40.6528 9.216 59.392 0l418.304-216.576 34.304 17.408z m0 230.4a42.496 42.496 0 0 1 0 78.848l-453.632 235.008a64 64 0 0 1-59.392 0L26.632192 781.312a42.496 42.496 0 0 1 0-78.848l35.328-18.432 423.424 217.6c18.7392 9.216 40.6528 9.216 59.392 0l418.304-217.088 34.304 17.92z" fill="#9A9DAE" p-id="22774"></path></svg>